<svg id="visual" viewBox="0 0 900 600" width="900" height="600" xmlns="http://www.w3.org/2000/svg" xmlns:xlink="http://www.w3.org/1999/xlink" version="1.1"><rect x="0" y="0" width="900" height="600" fill="#4FACF7"></rect><path d="M0 129L11.5 124.2C23 119.3 46 109.7 69 117.3C92 125 115 150 138.2 155.7C161.3 161.3 184.7 147.7 207.8 140.8C231 134 254 134 277 135C300 136 323 138 346 132.7C369 127.3 392 114.7 415.2 118.7C438.3 122.7 461.7 143.3 484.8 160.3C508 177.3 531 190.7 554 185.7C577 180.7 600 157.3 623 141.3C646 125.3 669 116.7 692.2 127.2C715.3 137.7 738.7 167.3 761.8 170C785 172.7 808 148.3 831 134.8C854 121.3 877 118.7 888.5 117.3L900 116L900 0L888.5 0C877 0 854 0 831 0C808 0 785 0 761.8 0C738.7 0 715.3 0 692.2 0C669 0 646 0 623 0C600 0 577 0 554 0C531 0 508 0 484.8 0C461.7 0 438.3 0 415.2 0C392 0 369 0 346 0C323 0 300 0 277 0C254 0 231 0 207.8 0C184.7 0 161.3 0 138.2 0C115 0 92 0 69 0C46 0 23 0 11.5 0L0 0Z" fill="#0066FF" stroke-linecap="round" stroke-linejoin="miter"></path></svg>