<svg id="visual" viewBox="0 0 900 600" width="900" height="600" xmlns="http://www.w3.org/2000/svg" xmlns:xlink="http://www.w3.org/1999/xlink" version="1.1"><rect x="0" y="0" width="900" height="600" fill="#6600FF"></rect><path d="M0 331L11.5 323.3C23 315.7 46 300.3 69 306C92 311.7 115 338.3 138.2 349C161.3 359.7 184.7 354.3 207.8 367.5C231 380.7 254 412.3 277 410C300 407.7 323 371.3 346 343C369 314.7 392 294.3 415.2 290.7C438.3 287 461.7 300 484.8 323.3C508 346.7 531 380.3 554 384.3C577 388.3 600 362.7 623 340.2C646 317.7 669 298.3 692.2 303.2C715.3 308 738.7 337 761.8 357.8C785 378.7 808 391.3 831 390.2C854 389 877 374 888.5 366.5L900 359L900 601L888.5 601C877 601 854 601 831 601C808 601 785 601 761.8 601C738.7 601 715.3 601 692.2 601C669 601 646 601 623 601C600 601 577 601 554 601C531 601 508 601 484.8 601C461.7 601 438.3 601 415.2 601C392 601 369 601 346 601C323 601 300 601 277 601C254 601 231 601 207.8 601C184.7 601 161.3 601 138.2 601C115 601 92 601 69 601C46 601 23 601 11.5 601L0 601Z" fill="#001122" stroke-linecap="round" stroke-linejoin="miter"></path></svg>