<svg id="visual" viewBox="0 0 900 600" width="900" height="600" xmlns="http://www.w3.org/2000/svg" xmlns:xlink="http://www.w3.org/1999/xlink" version="1.1"><rect x="0" y="0" width="900" height="600" fill="#6600FF"></rect><path d="M0 233L11.5 239.8C23 246.7 46 260.3 69 255.5C92 250.7 115 227.3 138.2 218C161.3 208.7 184.7 213.3 207.8 201.8C231 190.3 254 162.7 277 164.7C300 166.7 323 198.3 346 223C369 247.7 392 265.3 415.2 268.5C438.3 271.7 461.7 260.3 484.8 240C508 219.7 531 190.3 554 186.8C577 183.3 600 205.7 623 225.3C646 245 669 262 692.2 257.8C715.3 253.7 738.7 228.3 761.8 210.2C785 192 808 181 831 182C854 183 877 196 888.5 202.5L900 209L900 0L888.5 0C877 0 854 0 831 0C808 0 785 0 761.8 0C738.7 0 715.3 0 692.2 0C669 0 646 0 623 0C600 0 577 0 554 0C531 0 508 0 484.8 0C461.7 0 438.3 0 415.2 0C392 0 369 0 346 0C323 0 300 0 277 0C254 0 231 0 207.8 0C184.7 0 161.3 0 138.2 0C115 0 92 0 69 0C46 0 23 0 11.5 0L0 0Z" fill="#003a94" stroke-linecap="round" stroke-linejoin="miter"></path></svg>