<svg id="visual" viewBox="0 0 900 600" width="900" height="600" xmlns="http://www.w3.org/2000/svg" xmlns:xlink="http://www.w3.org/1999/xlink" version="1.1"><rect x="0" y="0" width="900" height="600" fill="#4FACF7"></rect><path d="M0 470L11.5 469.3C23 468.7 46 467.3 69 455C92 442.7 115 419.3 138.2 407.3C161.3 395.3 184.7 394.7 207.8 394.2C231 393.7 254 393.3 277 386.3C300 379.3 323 365.7 346 370.3C369 375 392 398 415.2 412.2C438.3 426.3 461.7 431.7 484.8 429.7C508 427.7 531 418.3 554 408.2C577 398 600 387 623 389.5C646 392 669 408 692.2 414.8C715.3 421.7 738.7 419.3 761.8 410C785 400.7 808 384.3 831 386.5C854 388.7 877 409.3 888.5 419.7L900 430L900 601L888.5 601C877 601 854 601 831 601C808 601 785 601 761.8 601C738.7 601 715.3 601 692.2 601C669 601 646 601 623 601C600 601 577 601 554 601C531 601 508 601 484.8 601C461.7 601 438.3 601 415.2 601C392 601 369 601 346 601C323 601 300 601 277 601C254 601 231 601 207.8 601C184.7 601 161.3 601 138.2 601C115 601 92 601 69 601C46 601 23 601 11.5 601L0 601Z" fill="#003a94" stroke-linecap="round" stroke-linejoin="miter"></path></svg>